<?xml version="1.0" encoding="iso-8859-1"?>
<!-- Generator: Adobe Illustrator 19.0.0, SVG Export Plug-In . SVG Version: 6.00 Build 0)  -->
<svg version="1.1" id="Layer_1" xmlns="http://www.w3.org/2000/svg" xmlns:xlink="http://www.w3.org/1999/xlink" x="0px" y="0px"
	 viewBox="0 0 512 512" style="enable-background:new 0 0 512 512;" xml:space="preserve">
<g>
	<rect x="23.906" y="192.08" style="fill:#AAAEBC;" width="112.043" height="15.577"/>
	<rect x="167.966" y="96.04" style="fill:#AAAEBC;" width="176.077" height="15.577"/>
	<rect x="32.121" y="231.886" style="fill:#AAAEBC;" width="15.577" height="32.014"/>
	<rect x="72.133" y="231.886" style="fill:#AAAEBC;" width="15.577" height="32.014"/>
	<rect x="112.157" y="231.886" style="fill:#AAAEBC;" width="15.577" height="32.014"/>
	<rect x="176.18" y="127.839" style="fill:#AAAEBC;" width="15.577" height="32.014"/>
	<rect x="224.2" y="127.839" style="fill:#AAAEBC;" width="15.577" height="32.014"/>
	<rect x="272.22" y="127.839" style="fill:#AAAEBC;" width="15.577" height="32.014"/>
	<rect x="320.24" y="127.839" style="fill:#AAAEBC;" width="15.577" height="32.014"/>
	<rect x="176.18" y="183.866" style="fill:#AAAEBC;" width="15.577" height="32.014"/>
	<rect x="224.2" y="183.866" style="fill:#AAAEBC;" width="15.577" height="32.014"/>
	<rect x="272.22" y="183.866" style="fill:#AAAEBC;" width="15.577" height="32.014"/>
	<rect x="320.24" y="183.866" style="fill:#AAAEBC;" width="15.577" height="32.014"/>
	<rect x="176.18" y="239.882" style="fill:#AAAEBC;" width="15.577" height="32.014"/>
	<rect x="224.2" y="239.882" style="fill:#AAAEBC;" width="15.577" height="32.014"/>
	<rect x="272.22" y="239.882" style="fill:#AAAEBC;" width="15.577" height="32.014"/>
	<rect x="320.24" y="239.882" style="fill:#AAAEBC;" width="15.577" height="32.014"/>
	<rect x="176.18" y="295.909" style="fill:#AAAEBC;" width="15.577" height="32.014"/>
	<rect x="224.2" y="295.909" style="fill:#AAAEBC;" width="15.577" height="32.014"/>
	<rect x="272.22" y="295.909" style="fill:#AAAEBC;" width="15.577" height="32.014"/>
	<rect x="320.24" y="295.909" style="fill:#AAAEBC;" width="15.577" height="32.014"/>
	<rect x="176.18" y="351.936" style="fill:#AAAEBC;" width="15.577" height="32.014"/>
	<rect x="224.2" y="351.936" style="fill:#AAAEBC;" width="15.577" height="32.014"/>
	<rect x="272.22" y="351.936" style="fill:#AAAEBC;" width="15.577" height="32.014"/>
	<rect x="320.24" y="351.936" style="fill:#AAAEBC;" width="15.577" height="32.014"/>
	<rect x="176.18" y="407.952" style="fill:#AAAEBC;" width="15.577" height="32.014"/>
	<rect x="224.2" y="407.952" style="fill:#AAAEBC;" width="15.577" height="32.014"/>
	<rect x="272.22" y="407.952" style="fill:#AAAEBC;" width="15.577" height="32.014"/>
	<rect x="320.24" y="407.952" style="fill:#AAAEBC;" width="15.577" height="32.014"/>
	<rect x="176.18" y="463.979" style="fill:#AAAEBC;" width="15.577" height="32.014"/>
	<rect x="224.2" y="463.979" style="fill:#AAAEBC;" width="15.577" height="32.014"/>
	<rect x="272.22" y="463.979" style="fill:#AAAEBC;" width="15.577" height="32.014"/>
	<rect x="320.24" y="463.979" style="fill:#AAAEBC;" width="15.577" height="32.014"/>
	<rect x="32.121" y="287.902" style="fill:#AAAEBC;" width="15.577" height="32.014"/>
	<rect x="72.133" y="287.902" style="fill:#AAAEBC;" width="15.577" height="32.014"/>
	<rect x="112.157" y="287.902" style="fill:#AAAEBC;" width="15.577" height="32.014"/>
	<rect x="32.121" y="343.929" style="fill:#AAAEBC;" width="15.577" height="32.014"/>
	<rect x="72.133" y="343.929" style="fill:#AAAEBC;" width="15.577" height="32.014"/>
	<rect x="112.157" y="343.929" style="fill:#AAAEBC;" width="15.577" height="32.014"/>
	<rect x="32.121" y="399.956" style="fill:#AAAEBC;" width="15.577" height="32.014"/>
	<rect x="72.133" y="399.956" style="fill:#AAAEBC;" width="15.577" height="32.014"/>
	<rect x="112.157" y="399.956" style="fill:#AAAEBC;" width="15.577" height="32.014"/>
	<rect x="32.121" y="455.972" style="fill:#AAAEBC;" width="15.577" height="32.014"/>
	<rect x="72.133" y="455.972" style="fill:#AAAEBC;" width="15.577" height="32.014"/>
	<rect x="112.157" y="455.972" style="fill:#AAAEBC;" width="15.577" height="32.014"/>
	<rect x="376.049" y="192.08" style="fill:#AAAEBC;" width="112.043" height="15.577"/>
	<rect x="464.3" y="231.886" style="fill:#AAAEBC;" width="15.577" height="32.014"/>
	<rect x="424.287" y="231.886" style="fill:#AAAEBC;" width="15.577" height="32.014"/>
	<rect x="384.263" y="231.886" style="fill:#AAAEBC;" width="15.577" height="32.014"/>
	<rect x="464.3" y="287.902" style="fill:#AAAEBC;" width="15.577" height="32.014"/>
	<rect x="424.287" y="287.902" style="fill:#AAAEBC;" width="15.577" height="32.014"/>
	<rect x="384.263" y="287.902" style="fill:#AAAEBC;" width="15.577" height="32.014"/>
	<rect x="464.3" y="343.929" style="fill:#AAAEBC;" width="15.577" height="32.014"/>
	<rect x="424.287" y="343.929" style="fill:#AAAEBC;" width="15.577" height="32.014"/>
	<rect x="384.263" y="343.929" style="fill:#AAAEBC;" width="15.577" height="32.014"/>
	<rect x="464.3" y="399.956" style="fill:#AAAEBC;" width="15.577" height="32.014"/>
	<rect x="424.287" y="399.956" style="fill:#AAAEBC;" width="15.577" height="32.014"/>
	<rect x="384.263" y="399.956" style="fill:#AAAEBC;" width="15.577" height="32.014"/>
	<rect x="464.3" y="455.972" style="fill:#AAAEBC;" width="15.577" height="32.014"/>
	<rect x="424.287" y="455.972" style="fill:#AAAEBC;" width="15.577" height="32.014"/>
	<rect x="384.263" y="455.972" style="fill:#AAAEBC;" width="15.577" height="32.014"/>
	<path style="fill:#AAAEBC;" d="M368.046,40.017H303.16C299.429,17.349,279.707,0,256,0s-43.43,17.349-47.161,40.017h-64.886v15.577
		h224.094V40.017z M224.729,40.017c3.493-14.02,16.186-24.44,31.271-24.44c15.085,0,27.778,10.42,31.271,24.44H224.729z"/>
	<rect x="400.277" y="95.822" style="fill:#AAAEBC;" width="15.577" height="16.006"/>
	<polygon style="fill:#AAAEBC;" points="415.852,160.067 415.852,119.836 400.275,119.836 400.275,160.067 367.831,160.067 
		367.831,64.027 144.168,64.027 144.168,160.067 111.725,160.067 111.725,119.836 96.148,119.836 96.148,160.067 0.107,160.067 
		0.107,512 15.685,512 15.685,175.645 144.168,175.645 144.168,512 159.745,512 159.745,79.605 352.254,79.605 352.254,512 
		367.831,512 367.831,175.645 496.315,175.645 496.315,512 511.893,512 511.893,160.067 	"/>
	<rect x="96.143" y="95.822" style="fill:#AAAEBC;" width="15.577" height="16.006"/>
</g>
<g>
</g>
<g>
</g>
<g>
</g>
<g>
</g>
<g>
</g>
<g>
</g>
<g>
</g>
<g>
</g>
<g>
</g>
<g>
</g>
<g>
</g>
<g>
</g>
<g>
</g>
<g>
</g>
<g>
</g>
</svg>
